<svg version="1.0" xmlns="http://www.w3.org/2000/svg" viewBox="0 0 1001 916">
  <path d="M498 2.1c-94.3 7.4-180 37.1-260.5 90.4C179.2 131 121 184.4 85.4 232c-24.7 33-44.3 67.7-58.7 104-5.5 13.9-7.1 19.3-10.1 34.5C10.4 402.7 6 435 2.8 472.5c-2 23.6-1.7 96.3.5 120.5 7.3 79.7 22.6 145.3 53.9 231.5 8.2 22.6 24.3 63.3 32.1 81l4.3 10 278.7.3c164.6.1 278.7-.2 278.7-.7 0-3.9-17.6-51-26.4-70.8-12.7-28.6-42.9-84.6-69.9-129.8-12.3-20.7-16.8-27.5-26.9-41.5-4.6-6.3-11.1-16.5-14.5-22.7-3.4-6.1-9.2-15.3-13-20.5-19.3-26.1-32.5-45.6-43.2-63.5-6.5-10.9-14.9-24.5-18.6-30.3-14.6-22.9-27.6-53.5-32.5-76.5-3-14-3.7-37.8-1.6-50.5 5.2-31.7 19.3-58.1 46-85.7 20.2-21 50.4-40.4 85.6-55.1 29.1-12.2 52.9-19.1 73-21.3 19.1-2.1 70.7-1.8 88.5.4 86.4 11.1 158 45.8 231.6 112.2 25.3 22.9 24.3 21.6 41.4 58.3 8.2 17.8 15.2 32.5 15.6 32.7.8.6 12.6-55.3 14-66.5 1.4-11.6.6-37.2-1.6-52-6.5-43.1-24.8-96.2-42-121.9-5.3-8-39.8-50.5-54.3-67.1-4.6-5.2-10.4-11.3-12.9-13.5-8-7.1-62.7-45.7-78.5-55.4-42.6-26.3-97.7-48.6-148.3-60C636.7 8.3 607.7 4.1 579 2 563.3.8 513.2.9 498 2.1zM666 162c33.4 5.9 75.6 19 104.9 32.6 18.4 8.6 37.9 21.8 59.9 40.7 11.7 10.1 30.4 27.8 29.9 28.4-.2.1-5.1-2.2-10.8-5.4-31.3-17-71-31.8-106.9-39.8-35-7.7-59.5-10-100.7-9.2-34.6.6-49.2 2.2-67.5 7.3-62.8 17.3-115.5 45.8-149.9 81.2-32.7 33.5-51.7 70.1-57 109.9-1.9 14.3-.6 43.1 2.5 58.2C376.6 495 387.8 522 406 552c4.6 7.4 14 23 21 34.6 7.1 11.6 21 32.6 31.1 46.5 10.1 14 21.3 30.7 24.9 37.2 3.6 6.5 11.7 18.7 17.8 27.2 6.2 8.5 11.6 16.5 12.1 17.9.5 1.3 3 5.5 5.5 9.4C533.2 748 564.2 803.4 581 837c6.1 12.2 19 40.4 19 41.6 0 .2-50.2.4-111.5.4-77.2 0-111.5-.3-111.5-1 0-2.1-16.1-43.9-24-62.5-4.5-10.5-15.7-33.9-25-52-9.2-18.2-19.1-38.2-21.9-44.6-23-52.5-36.7-103-41.6-153.8-1.7-17.7-2-57.3-.5-73.6 3.4-37.8 12.5-77.5 24-105.5 13.9-33.7 39.5-78.1 58.8-102 7.8-9.8 29.7-31 39.4-38.3 17.8-13.3 47.3-30.4 84.8-49.2 25.3-12.6 35.6-16.9 52.7-21.9 18.6-5.4 33.8-8.4 62.3-12.1 24.3-3.2 28.2-3.4 47-3.1 15.4.3 23.6.9 33 2.6z"/>
</svg>
