<svg id="Capa_1" enable-background="new 0 0 512 512" height="512" viewBox="0 0 512 512" width="512" xmlns="http://www.w3.org/2000/svg"><path d="m218.687 311.549h74.621c4.142 0 7.5-3.357 7.5-7.5 0-4.142-3.358-7.5-7.5-7.5h-74.621c-4.142 0-7.5 3.358-7.5 7.5s3.358 7.5 7.5 7.5zm95.271 61.786h-116.243c-4.142 0-7.5 3.357-7.5 7.5s3.358 7.5 7.5 7.5h116.243c4.142 0 7.5-3.357 7.5-7.5s-3.357-7.5-7.5-7.5zm-121.301-10.596h126.687c4.142 0 7.5-3.357 7.5-7.5s-3.358-7.5-7.5-7.5h-126.687c-4.142 0-7.5 3.357-7.5 7.5s3.358 7.5 7.5 7.5zm5.058-25.594h116.243c4.142 0 7.5-3.357 7.5-7.5 0-4.142-3.358-7.5-7.5-7.5h-116.243c-4.142 0-7.5 3.358-7.5 7.5s3.358 7.5 7.5 7.5zm-130.744 74.066h378.059c10.036 0 18.201-8.165 18.201-18.201v-231.405c0-10.036-8.165-18.201-18.201-18.201h-378.059c-10.036 0-18.201 8.165-18.201 18.201v231.405c-.001 10.036 8.165 18.201 18.201 18.201zm283.199-252.808h94.859c1.765 0 3.201 1.436 3.201 3.201v16.533h-98.06zm-173.34 0h158.34v27.234c0 3.591-2.921 6.512-6.512 6.512h-145.316c-3.591 0-6.512-2.921-6.512-6.512zm115.609 48.746v23.021c0 1.505-1.224 2.729-2.728 2.729h-33.757c-.013 0-.026-.002-.039-.002-.059 0-.118.001-.177.002h-33.449c-1.504 0-2.728-1.224-2.728-2.729v-23.021zm-109.097 0h21.219v23.021c0 9.775 7.953 17.729 17.728 17.729h26.429c1.049 16.728 4.963 34.416 19.677 40.723.963.413 1.965.608 2.951.608 2.91 0 5.678-1.704 6.897-4.548 1.632-3.807-.132-8.216-3.939-9.848-7.719-3.308-9.895-17.156-10.572-26.936h25.978c9.775 0 17.728-7.953 17.728-17.729v-23.021h21.219c9.221 0 17.083-5.843 20.136-14.012h99.436v199.874c0 1.766-1.436 3.201-3.201 3.201h-339.923v-203.073h58.1c3.054 8.168 10.916 14.011 20.137 14.011zm-119.573-45.544c0-1.765 1.436-3.201 3.201-3.201h94.859v19.734h-98.06zm0 31.533h26.336v203.073h-23.134c-1.765 0-3.201-1.436-3.201-3.201v-199.872zm161.683-133.922v-12.146c0-4.143-3.358-7.5-7.5-7.5s-7.5 3.357-7.5 7.5v12.146c0 4.143 3.358 7.5 7.5 7.5s7.5-3.358 7.5-7.5zm144.093 36.766c7.79 0 14.128-6.338 14.128-14.128v-37.254c0-7.79-6.338-14.128-14.128-14.128h-84.525c-7.79 0-14.128 6.338-14.128 14.128v37.255c0 7.79 6.338 14.128 14.128 14.128h84.525zm-83.652-50.51h82.781v35.511h-82.781zm163.331-45.472h-328.236c-4.142 0-7.5 3.357-7.5 7.5s3.358 7.5 7.5 7.5h328.235c26.345 0 47.777 21.433 47.777 47.776v48.678h-482v-48.678c0-26.343 21.432-47.776 47.776-47.776h20.291c4.142 0 7.5-3.357 7.5-7.5s-3.358-7.5-7.5-7.5h-20.291c-34.615 0-62.776 28.161-62.776 62.776v386.447c0 34.616 28.161 62.777 62.776 62.777h361.346c4.142 0 7.5-3.357 7.5-7.5s-3.358-7.5-7.5-7.5h-361.346c-26.344 0-47.776-21.433-47.776-47.776v-6.063h482v6.063c0 22.876-16.275 42.607-38.698 46.916-4.067.781-6.732 4.713-5.95 8.78.69 3.59 3.832 6.086 7.357 6.086.469 0 .946-.044 1.424-.136 29.474-5.664 50.867-31.59 50.867-61.646v-386.448c0-34.615-28.161-62.776-62.776-62.776zm47.776 428.16h-482v-301.706h482zm-84.209-369.874h26.458c4.142 0 7.5-3.357 7.5-7.5 0-4.142-3.358-7.5-7.5-7.5h-26.458c-4.142 0-7.5 3.358-7.5 7.5 0 4.143 3.358 7.5 7.5 7.5zm0 24.882h26.458c4.142 0 7.5-3.357 7.5-7.5s-3.358-7.5-7.5-7.5h-26.458c-4.142 0-7.5 3.357-7.5 7.5s3.358 7.5 7.5 7.5zm-191.003 379.412c-4.142 0-7.5 3.357-7.5 7.5s3.358 7.5 7.5 7.5h68.424c4.142 0 7.5-3.357 7.5-7.5s-3.358-7.5-7.5-7.5zm-45.479-394.071c0-18.212-13.599-33.028-30.314-33.028s-30.313 14.816-30.313 33.028 13.598 33.028 30.313 33.028 30.314-14.816 30.314-33.028zm-45.626 0c0-9.94 6.869-18.028 15.313-18.028s15.314 8.088 15.314 18.028-6.87 18.028-15.314 18.028-15.313-8.088-15.313-18.028zm-64.143-21.439v12.146c0 4.143 3.358 7.5 7.5 7.5s7.5-3.357 7.5-7.5v-12.146c0-4.143-3.358-7.5-7.5-7.5s-7.5 3.358-7.5 7.5z"/></svg>